<?xml version="1.0" encoding="UTF-8" standalone="no"?>
<svg
   version="1.1"
   viewBox="-11 0 600 600"
   id="svg6"
   sodipodi:docname="uniE9D1_Mana.svg"
   width="600"
   height="600"
   inkscape:export-filename="Battle symbol.svg"
   inkscape:export-xdpi="96"
   inkscape:export-ydpi="96"
   xmlns:inkscape="http://www.inkscape.org/namespaces/inkscape"
   xmlns:sodipodi="http://sodipodi.sourceforge.net/DTD/sodipodi-0.dtd"
   xmlns="http://www.w3.org/2000/svg"
   xmlns:svg="http://www.w3.org/2000/svg">
  <defs
     id="defs10" />
  <sodipodi:namedview
     id="namedview8"
     pagecolor="#505050"
     bordercolor="#ffffff"
     borderopacity="1"
     inkscape:showpageshadow="0"
     inkscape:pageopacity="0"
     inkscape:pagecheckerboard="1"
     inkscape:deskcolor="#505050"
     showgrid="false" />
  <g
     transform="matrix(0.64732886,0,0,-0.64732886,-9.3526728,575.96635)"
     id="g4">
    <path
       fill="currentColor"
       d="m 50,871 q 58,-17 116.5,-37 58.5,-20 109.5,-55 49,-43 93,-91 44,-48 91,-93 37,36 73,73.5 36,37.5 72,74.5 51,57 123,81.5 Q 800,849 870,871 852,813 833.5,754 815,695 781,643 739,593 691.5,547.5 644,502 599,454 q 30,-34 63.5,-67 33.5,-33 34.5,-83 27,25 53,51.5 26,26.5 52,52.5 19,-21 44,-43.5 Q 871,342 858,309 843,284 822.5,262.5 802,241 784,218 816,183 850.5,151 885,119 913,81 936,44 905,7.5 874,-29 834,-14 792,13 759,51.5 726,90 689,123 667,104 646,82.5 625,61 598,48 568,42 548.5,66 529,90 508,106 q 25,28 51,54.5 26,26.5 52,53.5 -50,1 -84.5,32 Q 492,277 460,309 428,278 393.5,248 359,218 310,216 335,188 361,161.5 387,135 413,109 393,91 367.5,63.5 342,36 315,52 286,69 258.5,96.5 L 231,124 182.5,73 Q 182.5,73 97,-7 59,-33 21.5,4.5 -16,42 9,81 35,122 71.5,153.5 108,185 138,224 q -22,25 -53,55 -31,30 -30,50 2,22 32.5,51 l 30.5,29 39.5,-39.5 q 0,0 66.5,-65.5 1,50 34,83 33,33 63,67 -36,37 -72.5,74.5 Q 212,566 175,603 119,655 96,728 73,801 50,871 Z"
       id="path2" />
  </g>
</svg>
