<?xml version="1.0" standalone="no"?>
<!DOCTYPE svg PUBLIC "-//W3C//DTD SVG 20010904//EN"
 "http://www.w3.org/TR/2001/REC-SVG-20010904/DTD/svg10.dtd">
<svg version="1.0" xmlns="http://www.w3.org/2000/svg"
 width="248.000000pt" height="450.000000pt" viewBox="0 0 248.000000 450.000000"
 preserveAspectRatio="xMidYMid meet">

<g transform="translate(0.000000,450.000000) scale(0.100000,-0.100000)"
fill="#000000" stroke="none">
<path d="M1236 4318 c-3 -56 -10 -209 -16 -338 -26 -567 -79 -1110 -129 -1310
l-16 -65 -70 -6 c-38 -4 -83 -8 -99 -10 -28 -4 -30 -1 -43 46 -54 203 -108
689 -139 1248 -3 64 -9 117 -14 117 -4 0 -10 -51 -14 -112 -24 -395 -61 -765
-102 -1018 -25 -155 -69 -349 -82 -362 -10 -9 -142 -58 -157 -58 -8 0 -23 26
-35 58 -53 140 -98 405 -126 735 -9 105 -19 199 -22 207 -11 32 -22 -54 -42
-325 -12 -154 -30 -388 -40 -520 -11 -132 -22 -274 -25 -315 l-6 -75 118 -58
c336 -163 635 -480 813 -861 99 -213 173 -464 210 -716 18 -126 39 -380 40
-477 0 -24 5 -43 10 -43 6 0 10 39 10 98 0 207 36 479 94 704 152 594 501
1062 966 1295 63 32 117 59 119 60 7 4 -101 1228 -109 1237 -4 4 -11 -27 -15
-70 -38 -476 -76 -719 -136 -880 -11 -30 -26 -54 -32 -54 -7 0 -46 13 -87 28
l-75 28 -27 104 c-57 217 -112 637 -143 1085 -9 132 -19 255 -21 273 -11 72
-21 14 -28 -154 -18 -454 -61 -873 -118 -1127 l-22 -99 -95 7 c-53 4 -99 10
-103 14 -10 9 -43 172 -62 306 -38 272 -77 755 -97 1215 -6 151 -15 279 -19
283 -5 5 -11 -38 -14 -95z"/>
</g>
</svg>
